# xmcd CD Database Entry
#
# Track frame offsets:
# 150
# 8370
# 27420
# 56532
# 76615
# 99227
# 110972
# 128247
# 151712
# 171672
#
# Disc length: 2505 seconds
#
# Revision: 1
# Processed by: cddbd v1.4PL0 Copyright (c) Steve Scherf et al.
# Submitted via: tcd 2.0b
#
DISCID=6f09c70a
DTITLE=Muddy Waters - Got My Mojo Working
DYEAR=1900
DGENRE=
TTITLE0=Harmonica Rockin'
TTITLE1=Down Broke Down
TTITLE2=Baby Rock and Roll
TTITLE3=So Long
TTITLE4=Luther's Blues
TTITLE5=Portnoy's Blues
TTITLE6=Baby Please Don't Go (alternate version)
TTITLE7=Long Distance Call
TTITLE8=Where's My Woman Been
TTITLE9=Got My Mojo Workin'
EXTD=
EXTT0=
EXTT1=
EXTT2=
EXTT3=
EXTT4=
EXTT5=
EXTT6=
EXTT7=
EXTT8=
EXTT9=
PLAYORDER=
